<?xml version="1.0" encoding="UTF-8" standalone="no"?>
<!-- Generator: Adobe Illustrator 16.0.0, SVG Export Plug-In . SVG Version: 6.00 Build 0)  -->

<svg
   xmlns:dc="http://purl.org/dc/elements/1.1/"
   xmlns:cc="http://creativecommons.org/ns#"
   xmlns:rdf="http://www.w3.org/1999/02/22-rdf-syntax-ns#"
   xmlns:svg="http://www.w3.org/2000/svg"
   xmlns="http://www.w3.org/2000/svg"
   xmlns:sodipodi="http://sodipodi.sourceforge.net/DTD/sodipodi-0.dtd"
   xmlns:inkscape="http://www.inkscape.org/namespaces/inkscape"
   id="Capa_1"
   style="enable-background:new 0 0 420 420"
   xml:space="preserve"
   height="512px"
   viewBox="0 0 420 420"
   width="512px"
   version="1.1"
   y="0px"
   x="0px"
   sodipodi:docname="app_movil.svg"
   inkscape:version="0.92.2 (5c3e80d, 2017-08-06)"><defs
     id="defs2120" /><sodipodi:namedview
     pagecolor="#ffffff"
     bordercolor="#666666"
     borderopacity="1"
     objecttolerance="10"
     gridtolerance="10"
     guidetolerance="10"
     inkscape:pageopacity="0"
     inkscape:pageshadow="2"
     inkscape:window-width="742"
     inkscape:window-height="480"
     id="namedview2118"
     showgrid="false"
     inkscape:zoom="0.4609375"
     inkscape:cx="256"
     inkscape:cy="256"
     inkscape:window-x="0"
     inkscape:window-y="0"
     inkscape:window-maximized="0"
     inkscape:current-layer="Capa_1" /><metadata
     id="metadata2451"><rdf:RDF><cc:Work
         rdf:about=""><dc:format>image/svg+xml</dc:format><dc:type
           rdf:resource="http://purl.org/dc/dcmitype/StillImage" /></cc:Work></rdf:RDF></metadata><g
     id="g2414"><g
       id="g2412"><g
         id="g2410"><path
           id="path2400"
           d="m330 0h-240c-17.722 0-32.14 14.418-32.14 32.139v355.72c0 17.72 14.418 32.14 32.14 32.14h240c17.722 0 32.14-14.417 32.14-32.139v-355.72c0-17.722-14.42-32.14-32.14-32.14zm-120 396.94c-7.544 0-13.659-6.115-13.659-13.659 0-7.543 6.115-13.659 13.659-13.659 7.542 0 13.659 6.116 13.659 13.659 0 7.55-6.12 13.66-13.66 13.66zm130.71-42.55h-261.42v-288.78h261.43l-0.01 288.78z"
           fill="#4d4d4d" /><path
           id="path2402"
           d="m265.44 180.96c0.602 0.602 1.439 0.857 2.299 0.788 0.863-0.072 1.75-0.473 2.467-1.187l18.597-18.598c1.422-1.423 1.602-3.556 0.393-4.761l-26.397-26.4c-1.205-1.207-3.338-1.029-4.763 0.393l-18.599 18.596c-1.425 1.426-1.604 3.562-0.397 4.767l26.4 26.4z"
           fill="#aa4d4d"
           style="fill:#dc3545;fill-opacity:1" /><path
           id="path2404"
           d="m133.1 289.99c0.284-0.026 0.576-0.085 0.865-0.186l37.638-12.709c1.193-0.403 2.186-1.388 2.594-2.578 0.414-1.188 0.185-2.407-0.596-3.188l-24.931-24.93c-0.781-0.781-1.998-1.009-3.189-0.6-1.191 0.411-2.175 1.4-2.58 2.596l-12.706 37.639c-0.403 1.186-0.169 2.388 0.608 3.162 0.6 0.59 1.43 0.87 2.31 0.8z"
           fill="#aa4d4d"
           style="fill:#dc3545;fill-opacity:1" /><path
           id="path2406"
           d="m180.5 208.73l-26.286 26.287c-1.426 1.427-1.604 3.558-0.395 4.763l26.402 26.399c0.601 0.607 1.434 0.862 2.298 0.791 0.859-0.071 1.752-0.474 2.464-1.184l26.796-26.797c2.339 2.067 4.658 4.082 6.947 6.021 1.06 0.899 2.396 1.382 3.767 1.382 0.312 0 0.62-0.024 0.932-0.073 1.683-0.273 3.16-1.27 4.046-2.726 1.563-2.567 3.604-5.117 6.06-7.572 3.081-3.082 6.513-5.495 10.192-7.172 1.657-0.757 2.866-2.246 3.268-4.021 0.398-1.776-0.053-3.641-1.225-5.034-2.193-2.609-4.489-5.261-6.854-7.934l20.66-20.659c0.682-0.682 1.11-1.571 1.182-2.466 0.076-0.891-0.209-1.72-0.789-2.297l-26.4-26.4c-1.205-1.209-3.338-1.032-4.764 0.393l-20.147 20.152c-13.514-12.811-27.084-24.239-39.046-32.838-8.422-6.052-23.828-16.227-32.405-16.357-1.566-0.028-3.081 0.585-4.193 1.688-1.115 1.104-1.734 2.613-1.723 4.181 0.045 5.845 5.176 16.39 14.444 29.688 8.8 12.66 20.92 27.21 34.75 41.79z"
           fill="#aa4d4d"
           style="fill:#dc3545;fill-opacity:1" /><path
           id="path2408"
           d="m258.33 233.73c-6.786 0-13.266 2.894-18.736 8.365-6.57 6.569-9.438 13.461-8.292 19.929 1.135 6.407 6.225 12.146 13.963 15.737 6.661 3.094 12.729 4.054 18.084 4.899 5.635 0.891 10.953 1.729 15.684 4.941 0.984 0.671 2.129 1.009 3.277 1.009 0.807 0 1.617-0.166 2.377-0.509 1.842-0.819 3.131-2.541 3.396-4.543 2.031-15.134-0.87-28.724-8.174-38.26-5.63-7.37-13.49-11.58-21.58-11.58z"
           fill="#aa4d4d"
           style="fill:#dc3545;fill-opacity:1" /></g></g></g></svg>