<?xml version="1.0" encoding="UTF-8" standalone="no"?>
<!-- Generator: Adobe Illustrator 16.0.0, SVG Export Plug-In . SVG Version: 6.00 Build 0)  -->

<svg
   xmlns:dc="http://purl.org/dc/elements/1.1/"
   xmlns:cc="http://creativecommons.org/ns#"
   xmlns:rdf="http://www.w3.org/1999/02/22-rdf-syntax-ns#"
   xmlns:svg="http://www.w3.org/2000/svg"
   xmlns="http://www.w3.org/2000/svg"
   xmlns:sodipodi="http://sodipodi.sourceforge.net/DTD/sodipodi-0.dtd"
   xmlns:inkscape="http://www.inkscape.org/namespaces/inkscape"
   id="Capa_1"
   style="enable-background:new 0 0 392.186 392.186"
   xml:space="preserve"
   height="512px"
   viewBox="0 0 392.186 392.186"
   width="512px"
   version="1.1"
   y="0px"
   x="0px"
   sodipodi:docname="comercio.svg"
   inkscape:version="0.92.2 (5c3e80d, 2017-08-06)"><defs
     id="defs970" /><sodipodi:namedview
     pagecolor="#ffffff"
     bordercolor="#666666"
     borderopacity="1"
     objecttolerance="10"
     gridtolerance="10"
     guidetolerance="10"
     inkscape:pageopacity="0"
     inkscape:pageshadow="2"
     inkscape:window-width="742"
     inkscape:window-height="480"
     id="namedview968"
     showgrid="false"
     inkscape:zoom="0.4609375"
     inkscape:cx="256"
     inkscape:cy="256"
     inkscape:window-x="-9"
     inkscape:window-y="-9"
     inkscape:window-maximized="1"
     inkscape:current-layer="Capa_1" /><metadata
     id="metadata3128"><rdf:RDF><cc:Work
         rdf:about=""><dc:format>image/svg+xml</dc:format><dc:type
           rdf:resource="http://purl.org/dc/dcmitype/StillImage" /></cc:Work></rdf:RDF></metadata><g
     id="g3091"><g
       id="g3089"><g
         id="g3087"><path
           id="path3077"
           d="m368.62 17.951h-345.05c-13 0-23.57 10.573-23.57 23.569v309.15c0 12.996 10.57 23.568 23.568 23.568h345.05c12.994 0 23.564-10.572 23.564-23.568v-309.15c0.01-12.995-10.57-23.569-23.56-23.569zm-71.06 39.577c0-4.806 3.896-8.703 8.701-8.703h8.703c4.808 0 8.701 3.896 8.701 8.703v9.863c0 4.806-3.896 8.702-8.701 8.702h-8.703c-4.805 0-8.701-3.896-8.701-8.702v-9.863zm-40.47 0c0-4.806 3.898-8.703 8.703-8.703h8.701c4.805 0 8.703 3.896 8.703 8.703v9.863c0 4.806-3.898 8.702-8.703 8.702h-8.701c-4.805 0-8.703-3.896-8.703-8.702v-9.863zm106.81 288.42h-335.62v-243.71h335.62v243.71zm0.23-278.56c0 4.806-3.896 8.702-8.701 8.702h-8.703c-4.809 0-8.702-3.896-8.702-8.702v-9.863c0-4.806 3.896-8.703 8.702-8.703h8.703c4.806 0 8.701 3.896 8.701 8.703v9.863z"
           fill="#4d4d4d" /><path
           id="path3079"
           d="m86.593 183.66c7.383 0 14.072-3.017 18.906-7.881l65.775 25.743c1.684 13.096 12.895 23.25 26.439 23.25 14.703 0 26.666-11.961 26.666-26.666 0-0.64-0.031-1.271-0.074-1.899l63.488-37.044c4.723 4.243 10.965 6.831 17.799 6.831 14.705 0 26.666-11.962 26.666-26.667s-11.961-26.667-26.666-26.667c-14.703 0-26.666 11.963-26.666 26.667 0 1.357 0.104 2.69 0.301 3.994l-62.282 36.34c-4.854-5.062-11.679-8.222-19.229-8.222-9.422 0-17.713 4.916-22.455 12.313l-62.117-24.313c0.074-0.807 0.117-1.622 0.117-2.447 0-14.704-11.961-26.667-26.666-26.667-14.703 0-26.666 11.963-26.666 26.667s11.942 26.68 26.645 26.68zm219-53c4.777 0 8.666 3.888 8.666 8.667s-3.889 8.667-8.666 8.667c-4.776 0-8.666-3.888-8.666-8.667 0.01-4.79 3.9-8.67 8.67-8.67zm-107.88 58.78c4.778 0 8.666 3.888 8.666 8.667 0 4.778-3.888 8.666-8.666 8.666-4.779 0-8.666-3.888-8.666-8.666 0.01-4.79 3.9-8.67 8.67-8.67zm-111.12-41.12c4.777 0 8.666 3.888 8.666 8.667s-3.889 8.667-8.666 8.667-8.666-3.888-8.666-8.667c0-4.78 3.889-8.67 8.666-8.67z"
           fill="#aa4d4d"
           style="fill:#dc3545;fill-opacity:1" /><g
           id="g3085"
           fill="#4d4d4d"><path
             id="path3081"
             d="m305.59 180.99c-6.496 0-12.809-1.72-18.35-4.932l-53.07 30.966c-1.832 17.157-12.39 29.799-30.232 32.553v82.747h119.94v-146.25c-5.38 3.12-11.63 4.91-18.29 4.91z" /><path
             id="path3083"
             d="m162.68 213.89l-55.35-21.664c-6.061 4.179-13.225 6.427-20.734 6.427-6.66 0-12.904-1.793-18.293-4.91v128.58h124.45v-82.688c-13.09-1.84-26.28-10.69-30.07-25.75z" /></g></g></g></g></svg>