<?xml version="1.0" encoding="UTF-8" standalone="no"?>
<!-- Generator: Adobe Illustrator 16.0.0, SVG Export Plug-In . SVG Version: 6.00 Build 0)  -->

<svg
   xmlns:dc="http://purl.org/dc/elements/1.1/"
   xmlns:cc="http://creativecommons.org/ns#"
   xmlns:rdf="http://www.w3.org/1999/02/22-rdf-syntax-ns#"
   xmlns:svg="http://www.w3.org/2000/svg"
   xmlns="http://www.w3.org/2000/svg"
   xmlns:sodipodi="http://sodipodi.sourceforge.net/DTD/sodipodi-0.dtd"
   xmlns:inkscape="http://www.inkscape.org/namespaces/inkscape"
   id="Capa_1"
   style="enable-background:new 0 0 451.375 451.375"
   xml:space="preserve"
   height="512px"
   viewBox="0 0 451.375 451.375"
   width="512px"
   version="1.1"
   y="0px"
   x="0px"
   sodipodi:docname="consulta.svg"
   inkscape:version="0.92.2 (5c3e80d, 2017-08-06)"><defs
     id="defs1549" /><sodipodi:namedview
     pagecolor="#ffffff"
     bordercolor="#666666"
     borderopacity="1"
     objecttolerance="10"
     gridtolerance="10"
     guidetolerance="10"
     inkscape:pageopacity="0"
     inkscape:pageshadow="2"
     inkscape:window-width="742"
     inkscape:window-height="480"
     id="namedview1547"
     showgrid="false"
     inkscape:zoom="0.4609375"
     inkscape:cx="256"
     inkscape:cy="256"
     inkscape:window-x="0"
     inkscape:window-y="0"
     inkscape:window-maximized="0"
     inkscape:current-layer="Capa_1" /><metadata
     id="metadata1802"><rdf:RDF><cc:Work
         rdf:about=""><dc:format>image/svg+xml</dc:format><dc:type
           rdf:resource="http://purl.org/dc/dcmitype/StillImage" /></cc:Work></rdf:RDF></metadata><g
     id="g1765"><g
       id="g1763"><g
         id="g1761"><path
           id="path1743"
           d="m255.29 289.42c2.172-10.856 7.07-20.174 14.512-27.387 3.373-3.271 7.229-6.037 11.488-8.31h-111.38c13.67 7.302 22.881 19.698 26.133 35.694l59.25 0.01z"
           fill="#4d4d4d" /><path
           id="path1745"
           d="m78.534 253.73c-9.838 0-17.846 8.007-17.846 17.85 0 9.842 8.008 17.848 17.846 17.848h4.57c2.172-10.855 7.068-20.174 14.51-27.385 5.008-4.854 11.057-8.629 17.953-11.261v-181.15h220.24v181.23c17.132 6.618 28.691 20.229 32.421 38.567h4.61c9.84 0 17.847-8.006 17.847-17.848s-8.007-17.849-17.847-17.849h-4.49v-184.1h4.49c9.84 0 17.847-8.008 17.847-17.848s-8.007-17.846-17.847-17.846h-130.88v-17.666c0-8.984-7.283-16.27-16.27-16.27-8.984 0-16.268 7.285-16.268 16.27v17.664h-130.89c-9.838 0-17.846 8.006-17.846 17.846s8.008 17.848 17.846 17.848h4.494v184.1h-4.494z"
           fill="#4d4d4d" /><path
           id="path1747"
           d="m173.82 209.32v-58.055c0-6.74-5.469-12.205-12.207-12.205-6.742 0-12.201 5.465-12.201 12.205v58.055c0 6.74 5.459 12.205 12.201 12.205 6.74 0.01 12.21-5.46 12.21-12.2z"
           fill="#aa4d4d"
           style="fill:#dc3545;fill-opacity:1" /><path
           id="path1749"
           d="m216.53 209.32v-100.77c0-6.74-5.461-12.203-12.201-12.203-6.742 0-12.209 5.463-12.209 12.203v100.77c0 6.74 5.467 12.205 12.209 12.205 6.74 0.01 12.2-5.46 12.2-12.2z"
           fill="#aa4d4d"
           style="fill:#dc3545;fill-opacity:1" /><path
           id="path1751"
           d="m259.25 209.32v-75.145c0-6.738-5.467-12.201-12.209-12.201-6.74 0-12.201 5.463-12.201 12.201v75.145c0 6.74 5.461 12.205 12.201 12.205 6.75 0.01 12.21-5.46 12.21-12.2z"
           fill="#aa4d4d"
           style="fill:#dc3545;fill-opacity:1" /><path
           id="path1753"
           d="m301.96 209.32v-87.955c0-6.74-5.461-12.205-12.199-12.205-6.739 0-12.207 5.465-12.207 12.205v87.955c0 6.74 5.468 12.205 12.207 12.205 6.74 0.01 12.2-5.46 12.2-12.2z"
           fill="#aa4d4d"
           style="fill:#dc3545;fill-opacity:1" /><path
           id="path1755"
           d="m139.53 363.94h0.043 0.016 0.012 0.029 0.078v-0.008c26.266 0.402 42.242-22.592 42.648-60.5 0.268-26.299-16.037-41.336-42.6-42.043v-0.01c-0.037 0-0.07 0.008-0.119 0.008v-0.008c-0.012 0-0.037 0-0.049 0.008-0.021-0.008-0.041-0.008-0.057-0.008v0.008c-0.043 0-0.072-0.008-0.111-0.008v0.01c-26.568 0.707-42.869 15.742-42.6 42.043 0.408 37.908 16.371 60.902 42.639 60.5v0.008h0.07z"
           fill="#4d4d4d" /><path
           id="path1757"
           d="m311.72 363.94h0.041 0.019 0.012 0.029 0.075v-0.008c26.269 0.402 42.24-22.592 42.648-60.5 0.27-26.299-16.037-41.336-42.598-42.043v-0.01c-0.041 0-0.07 0.008-0.121 0.008v-0.008c-0.013 0-0.035 0-0.047 0.008-0.021-0.008-0.041-0.008-0.06-0.008v0.008c-0.041 0-0.074-0.008-0.11-0.008v0.01c-26.566 0.707-42.867 15.742-42.604 42.043 0.408 37.908 16.376 60.902 42.642 60.5v0.008h0.07z"
           fill="#4d4d4d" /><path
           id="path1759"
           d="m387.42 392.7l-42.723-17.037-10.004-8.424c-2.644-2.235-6.541-2.071-8.994 0.362l-13.91 13.83-13.953-13.836c-2.449-2.43-6.346-2.584-8.984-0.356l-10.012 8.424-42.721 17.041c-5.146 2.053-8.365 10.143-10.441 19.707-2.08-9.564-5.301-17.664-10.447-19.711l-42.723-17.037-10.006-8.424c-2.639-2.235-6.541-2.071-8.994 0.362l-13.91 13.83-13.949-13.836c-2.451-2.43-6.346-2.584-8.988-0.356l-10.01 8.424-42.74 17.06c-13.76 5.479-13.744 54.199-14.93 58.672h353.38c-1.19-4.46-1.19-53.2-14.96-58.67z"
           fill="#4d4d4d" /></g></g></g></svg>