<?xml version="1.0" encoding="UTF-8" standalone="no"?>
<!-- Generator: Adobe Illustrator 16.0.0, SVG Export Plug-In . SVG Version: 6.00 Build 0)  -->

<svg
   xmlns:dc="http://purl.org/dc/elements/1.1/"
   xmlns:cc="http://creativecommons.org/ns#"
   xmlns:rdf="http://www.w3.org/1999/02/22-rdf-syntax-ns#"
   xmlns:svg="http://www.w3.org/2000/svg"
   xmlns="http://www.w3.org/2000/svg"
   xmlns:sodipodi="http://sodipodi.sourceforge.net/DTD/sodipodi-0.dtd"
   xmlns:inkscape="http://www.inkscape.org/namespaces/inkscape"
   id="Capa_1"
   style="enable-background:new 0 0 451.375 451.375"
   xml:space="preserve"
   height="512px"
   viewBox="0 0 451.375 451.375"
   width="512px"
   version="1.1"
   y="0px"
   x="0px"
   sodipodi:docname="web.svg"
   inkscape:version="0.92.2 (5c3e80d, 2017-08-06)"><defs
     id="defs942" /><sodipodi:namedview
     pagecolor="#ffffff"
     bordercolor="#666666"
     borderopacity="1"
     objecttolerance="10"
     gridtolerance="10"
     guidetolerance="10"
     inkscape:pageopacity="0"
     inkscape:pageshadow="2"
     inkscape:window-width="1920"
     inkscape:window-height="1001"
     id="namedview940"
     showgrid="false"
     inkscape:zoom="1.578125"
     inkscape:cx="256"
     inkscape:cy="256"
     inkscape:window-x="-9"
     inkscape:window-y="-9"
     inkscape:window-maximized="1"
     inkscape:current-layer="Capa_1" /><metadata
     id="metadata935"><rdf:RDF><cc:Work
         rdf:about=""><dc:format>image/svg+xml</dc:format><dc:type
           rdf:resource="http://purl.org/dc/dcmitype/StillImage" /><dc:title /></cc:Work></rdf:RDF></metadata><g
     id="g1128"
     transform="matrix(1.0929 0 0 1.0929 .80392 13.85)"><g
       id="g3762"><g
         id="g3760" /></g><g
       id="g6648"
       transform="matrix(.80663 0 0 .80663 -.64081 -11.455)"><g
         id="g6522"><g
           id="g6520"><ellipse
             id="ellipse6518"
             rx="13.184"
             ry="13.168"
             cy="125.05"
             cx="68.256"
             fill="#4d4d4d" /></g></g><g
         id="g6528"><g
           id="g6526"><ellipse
             id="ellipse6524"
             rx="13.184"
             ry="13.168"
             cy="125.05"
             cx="103.21"
             fill="#4d4d4d" /></g></g><g
         id="g6534"><g
           id="g6532"><ellipse
             id="ellipse6530"
             rx="13.184"
             ry="13.168"
             cy="125.05"
             cx="138.16"
             fill="#4d4d4d" /></g></g><g
         id="g6540"><g
           id="g6538"><polygon
             id="polygon6536"
             points="456.93 146.92 456.93 104.34 202.02 104.34 174.22 146.92"
             fill="#4d4d4d" /></g></g><g
         id="g6546"><g
           id="g6544"><path
             id="path6542"
             d="m488 49.332h-464c-13.2 0-24 10.8-24 24v365.34c0 13.2 10.8 24 24 24h464c13.2 0 24-10.8 24-24v-365.34c0-13.2-10.8-24-24-24zm-8 372.59-22.14-16.82h-63.632l33.544 25.568h-27.71l-33.66-25.57h-220.81l-33.664 25.568h-27.706l33.546-25.57h-63.626l-22.144 16.82v-340.59h448z"
             fill="#4d4d4d" /></g></g><g
         id="g6556"><g
           id="g6554"><g
             id="g6552"><polygon
               id="polygon6548"
               points=""
               fill="#4d4d4d" /><path
               id="path6550"
               d="m207.03 237.62-7.7124 31.31c-0.49795 1.886-1.0493 4.3502-1.6539 7.3925-0.61059 3.048-1.0493 5.5907-1.3279 7.6339-0.30826-2.1218-0.74693-4.6589-1.3279-7.6114-0.58095-2.9525-1.067-5.1529-1.4524-6.5955l-8.82-32.14h-12.15l-8.8209 32.135c-0.5276 1.7288-1.0908 4.1537-1.6776 7.2803-0.59873 3.1321-0.97219 5.4392-1.1382 6.9266-0.61059-4.2379-1.5946-9.2449-2.9403-15.032l-7.7539-31.31h-12.645l15.454 57.366h14.589l8.1629-30.053c0.36161-1.3303 0.8655-3.5644 1.5354-6.6853 0.65801-3.1321 1.0789-5.3999 1.239-6.8088 0.11263 1.1507 0.53352 3.4016 1.2686 6.7639 0.72915 3.3679 1.2449 5.5795 1.5531 6.6572l8.2044 30.131h14.63l15.419-57.366z"
               stroke-width=".72106"
               fill="#aa4d4d"
               style="fill:#dc3545;fill-opacity:1" /></g></g></g><g
         id="g6562"><g
           id="g6560"><path
             id="path6558"
             d="m289.08 237.61-7.7124 31.31c-0.49796 1.886-1.0493 4.3502-1.6539 7.3925-0.61059 3.048-1.0493 5.5907-1.3279 7.6339-0.30826-2.1218-0.74693-4.6589-1.3279-7.6114-0.58095-2.9525-1.067-5.1529-1.4524-6.5955l-8.8209-32.135h-12.15l-8.8209 32.135c-0.52759 1.7288-1.0908 4.1537-1.6776 7.2803-0.59873 3.1321-0.9722 5.4392-1.1382 6.9266-0.61058-4.2379-1.5946-9.2449-2.9403-15.032l-7.7539-31.31h-12.639l15.454 57.366h14.583l8.1629-30.053c0.36161-1.3303 0.86549-3.5644 1.5354-6.6853 0.65801-3.1322 1.0789-5.3999 1.239-6.8088 0.11263 1.1507 0.53352 3.4016 1.2686 6.7638 0.72915 3.3679 1.2449 5.5795 1.5532 6.6572l8.2044 30.131h14.63l15.419-57.366z"
             stroke-width=".72106"
             fill="#aa4d4d"
             style="fill:#dc3545;fill-opacity:1" /></g></g><g
         id="g6568"><g
           id="g6566"><path
             id="path6564"
             d="m371.13 237.62-7.7124 31.31c-0.49796 1.886-1.0493 4.3502-1.6539 7.3925-0.61059 3.048-1.0493 5.5907-1.3279 7.6339-0.30825-2.1218-0.74693-4.6589-1.3279-7.6114-0.58094-2.9525-1.067-5.1529-1.4524-6.5955l-8.8209-32.135h-12.147l-8.8209 32.135c-0.5276 1.7288-1.0908 4.1537-1.6776 7.2803-0.59873 3.1321-0.9722 5.4392-1.1382 6.9266-0.61059-4.2379-1.5946-9.2449-2.9403-15.032l-7.7539-31.31h-12.639l15.454 57.366h14.583l8.1629-30.053c0.36161-1.3303 0.86549-3.5644 1.5354-6.6853 0.65801-3.1322 1.0789-5.3999 1.239-6.8088 0.11264 1.1507 0.53353 3.4016 1.2686 6.7638 0.72915 3.3679 1.2449 5.5795 1.5532 6.6572l8.2044 30.131h14.63l15.419-57.366z"
             stroke-width=".72106"
             fill="#aa4d4d"
             style="fill:#dc3545;fill-opacity:1" /></g></g></g></g></svg>